<?xml version="1.0" encoding="utf-8"?>
<!-- Generator: Adobe Illustrator 25.3.1, SVG Export Plug-In . SVG Version: 6.00 Build 0)  -->
<svg version="1.1" id="Layer_1" xmlns="http://www.w3.org/2000/svg" xmlns:xlink="http://www.w3.org/1999/xlink" x="0px" y="0px"
	 viewBox="0 0 737.79 273.43" style="enable-background:new 0 0 737.79 273.43;" xml:space="preserve">
<style type="text/css">
	.st0{fill:none;}
	.st1{fill:#FFFFFF;}
</style>
<g>
	<path class="st0" d="M162.49,68.11c-39.83,0-72.12,32.29-72.12,72.12c0,15.82,5.1,30.46,13.74,42.35c1.64-2.42,3.75-4.48,6.21-6.06
		c-7.17-10.29-11.38-22.8-11.38-36.29c0-35.09,28.45-63.54,63.54-63.54c35.09,0,63.54,28.45,63.54,63.54
		c0,13.49-4.21,26-11.38,36.29c2.46,1.58,4.57,3.64,6.21,6.06c8.64-11.89,13.74-26.52,13.74-42.35
		C234.61,100.39,202.32,68.11,162.49,68.11z"/>
	<path class="st1" d="M316.67,130.83v8.29h13.03V99.54l-33.82-0.21v13.57h12.87l-0.87,2.69c-0.54,1.69-1.77,3.3-3.68,4.82
		c-1.91,1.49-4.26,2.23-7.05,2.23c-1.57,0-3.22-0.26-4.96-0.78c-1.74-0.52-3.35-1.52-4.85-3c-1.46-1.48-2.67-3.63-3.63-6.42
		c-0.92-2.83-1.38-6.54-1.38-11.14c0-5.39,0.65-9.64,1.94-12.74c1.33-3.14,3.05-5.37,5.16-6.68c2.15-1.35,4.43-2.02,6.85-2.02
		c3.47,0,6.18,1.04,8.12,3.11c1.98,2.04,3.29,4.59,3.93,7.67h20.79c-0.07-3.49-0.85-6.87-2.35-10.15c-1.5-3.28-3.66-6.22-6.49-8.81
		c-2.79-2.62-6.16-4.7-10.12-6.22c-3.95-1.52-8.41-2.28-13.39-2.28c-7.08,0-13.35,1.61-18.8,4.82c-5.42,3.21-9.67,7.74-12.77,13.57
		c-3.07,5.8-4.6,12.59-4.6,20.36c0,7.53,1.45,14.18,4.34,19.94c2.9,5.73,6.97,10.22,12.21,13.47c5.24,3.21,11.38,4.82,18.39,4.82
		c4.09,0,7.46-0.5,10.12-1.5c2.66-1.04,4.84-2.28,6.54-3.73C313.96,133.47,315.44,132.11,316.67,130.83z"/>
	<polygon class="st1" points="347,139.12 387.67,139.12 387.67,122.33 352.88,122.33 352.88,112.44 373.39,112.44 373.39,99.54 
		353.03,99.54 353.03,81.93 373.39,81.93 373.39,80.89 373.39,80.89 373.39,64.21 373.39,64.21 347.08,64.21 347,64.21 347,64.14 
		332.96,64.14 332.96,139.17 347,139.17 	"/>
	<polygon class="st1" points="397.86,81.93 397.86,139.12 417.78,139.12 417.78,81.93 438.94,81.93 438.94,64.21 387.72,64.21 
		387.57,64.21 376.81,64.21 376.81,80.89 376.81,81.93 387.72,81.93 	"/>
	<path class="st1" d="M162.49,58.43c-44.08,0-79.82,35.74-79.82,79.82c0,21.2,8.27,40.47,21.75,54.76c0.28-9.32,6.5-17.15,15-19.84
		c-3.61-2.19-6.03-6.15-6.03-10.69c0-6.91,5.6-12.51,12.51-12.51c6.91,0,12.51,5.6,12.51,12.51c0,4.53-2.42,8.49-6.03,10.69
		c4.26,1.35,7.95,3.99,10.6,7.47c-5.01,4.58-8.15,11.17-8.15,18.49v9.04c0,1.65,0.16,3.27,0.47,4.83c-0.12,0.06,3.35,1.47,5.26,2.01
		c-1.37-2.83-2.14-6.01-2.14-9.37v-7.75c0-9.39,6.02-17.36,14.41-20.29c-3.55-2.84-5.83-7.2-5.83-12.1
		c0-8.56,6.94-15.49,15.49-15.49c8.56,0,15.49,6.94,15.49,15.49c0,4.9-2.28,9.27-5.83,12.1c1.16,0.4,2.26,0.91,3.32,1.5
		c3.47-3.41,5.62-8.15,5.62-13.4c0-2.49-0.49-4.87-1.37-7.05l14.65-14.91h-27.3v3.78c-1.52-0.4-3.12-0.61-4.77-0.61
		c-0.56,0-1.12,0.03-1.67,0.08l-9.53-9.7l15.96-16.25v9.73h38.79c1.67,0,3.27,0.66,4.46,1.85c1.8,1.79,2.92,4.02,2.92,6.63
		c0,2.61-1.12,4.84-2.87,6.58l-3.1,3.16c-2.44-1.53-5.33-2.42-8.42-2.42c-8.76,0-15.85,7.1-15.85,15.85c0,3.2,0.95,6.17,2.58,8.66
		l-8.71,8.87c5.84,3.84,9.71,10.44,9.71,17.96v7.75c0,3.36-0.77,6.53-2.14,9.37c1.91-0.54,5.38-1.95,5.26-2.01
		c0.31-1.56,0.47-3.18,0.47-4.83v-9.04c0-7.33-3.15-13.91-8.15-18.49c2.65-3.47,6.34-6.12,10.6-7.47
		c-3.61-2.19-6.03-6.15-6.03-10.69c0-6.91,5.6-12.51,12.51-12.51c6.91,0,12.51,5.6,12.51,12.51c0,4.53-2.42,8.49-6.03,10.69
		c8.5,2.69,14.72,10.51,15,19.84c13.48-14.29,21.75-33.56,21.75-54.76C242.31,94.16,206.57,58.43,162.49,58.43z M192.48,119.5
		c-2.52,2.56-6.64,2.56-9.16,0l-19.49-19.84l-36.92,37.59l18.97,19.31c-1.51,2.71-2.37,5.82-2.37,9.14c0,3.4,0.91,6.59,2.49,9.35
		l-5.82-5.93c0.81-1.9,1.25-3.99,1.25-6.18c0-8.76-7.1-15.85-15.85-15.85c-2.09,0-4.09,0.41-5.92,1.15l-6.28-6.39
		c-2.49-2.54-2.49-6.65,0-9.18l45.94-46.77c2.49-2.54,6.53-2.54,9.02,0l24.13,24.57C194.94,112.97,194.94,116.99,192.48,119.5z
		 M220.86,182.57c-1.64-2.42-3.75-4.48-6.21-6.06c7.17-10.29,11.38-22.8,11.38-36.29c0-35.09-28.45-63.54-63.54-63.54
		c-35.09,0-63.54,28.45-63.54,63.54c0,13.49,4.21,26,11.38,36.29c-2.46,1.58-4.57,3.64-6.21,6.06
		c-8.64-11.89-13.74-26.52-13.74-42.35c0-39.83,32.29-72.12,72.12-72.12c39.83,0,72.12,32.29,72.12,72.12
		C234.61,156.05,229.51,170.68,220.86,182.57z"/>
	<path class="st1" d="M305.75,194.77l-1.32-0.49c-0.63-0.21-0.91-0.07-1.19,0.56c-2.09,6.9-6.07,10.53-15.41,10.53
		c-10.11,0-15.55-5.44-15.55-14.15V174c0-8.78,5.23-14.08,15.55-14.08c9.06,0,13.18,3.28,15.27,10.18c0.21,0.63,0.49,0.7,1.18,0.56
		l1.25-0.42c0.63-0.28,0.84-0.49,0.63-1.19c-2.37-7.95-7.53-12.13-18.34-12.13c-12.34,0-18.75,6.55-18.75,17.15v17.08
		c0,10.67,6.62,17.22,18.75,17.22c11.09,0,16.11-4.53,18.48-12.48C306.52,195.26,306.38,194.98,305.75,194.77z"/>
	<path class="st1" d="M332.1,156.92c-12.27,0-18.82,6.55-18.82,17.22v17.01c0,10.67,6.55,17.22,18.82,17.22
		c12.13,0,18.68-6.55,18.68-17.22v-17.01C350.79,163.47,344.23,156.92,332.1,156.92z M347.58,191.15c0,8.92-5.44,14.22-15.48,14.22
		c-10.18,0-15.62-5.3-15.62-14.22v-17.01c0-8.92,5.44-14.22,15.62-14.22c10.04,0,15.48,5.3,15.48,14.22V191.15z"/>
	<path class="st1" d="M403.91,157.89h-1.32c-0.7,0-0.91,0.21-1.25,0.84l-18.55,32.91l-18.68-32.98c-0.35-0.56-0.56-0.77-1.32-0.77
		h-1.12c-0.7,0-0.91,0.21-0.91,0.91v47.69c0,0.7,0.21,0.91,0.91,0.91h1.25c0.7,0,0.91-0.21,0.91-0.91v-32
		c0-3.76-0.14-7.53-0.42-11.64h0.14c1.67,3.56,3.21,6.55,5.02,9.69l12.62,22.31c0.28,0.63,0.56,0.7,1.18,0.7h0.91
		c0.56,0,0.84-0.14,1.12-0.7l12.41-22.03c1.88-3.28,3.49-6.34,5.23-9.97h0.14c-0.35,4.11-0.49,8.02-0.49,11.64v32
		c0,0.7,0.21,0.91,0.84,0.91h1.39c0.63,0,0.84-0.21,0.84-0.91V158.8C404.75,158.1,404.54,157.89,403.91,157.89z"/>
	<path class="st1" d="M459.34,157.89h-1.32c-0.7,0-0.91,0.21-1.25,0.84l-18.55,32.91l-18.68-32.98c-0.35-0.56-0.56-0.77-1.32-0.77
		h-1.12c-0.7,0-0.91,0.21-0.91,0.91v47.69c0,0.7,0.21,0.91,0.91,0.91h1.25c0.7,0,0.91-0.21,0.91-0.91v-32
		c0-3.76-0.14-7.53-0.42-11.64h0.14c1.67,3.56,3.21,6.55,5.02,9.69l12.62,22.31c0.28,0.63,0.56,0.7,1.18,0.7h0.91
		c0.56,0,0.84-0.14,1.12-0.7l12.41-22.03c1.88-3.28,3.49-6.34,5.23-9.97h0.14c-0.35,4.11-0.49,8.02-0.49,11.64v32
		c0,0.7,0.21,0.91,0.84,0.91h1.39c0.63,0,0.84-0.21,0.84-0.91V158.8C460.18,158.1,459.97,157.89,459.34,157.89z"/>
	<path class="st1" d="M507.1,157.89h-1.53c-0.63,0-0.84,0.21-0.84,0.91v31.86c0,8.99-4.95,14.78-15.13,14.78
		c-10.25,0-15.2-5.79-15.2-14.78V158.8c0-0.7-0.21-0.91-0.84-0.91h-1.46c-0.7,0-0.91,0.21-0.91,0.91v31.86
		c0,10.81,6.07,17.78,18.41,17.78c12.27,0,18.34-6.97,18.34-17.78V158.8C507.94,158.1,507.73,157.89,507.1,157.89z"/>
	<path class="st1" d="M554.65,157.89h-1.39c-0.7,0-0.91,0.21-0.91,0.84v31.44c0,4.81,0.49,9.48,0.49,12.55h-0.14
		c-1.67-2.37-3.83-6.27-6.41-9.97l-24.05-34.37c-0.14-0.21-0.42-0.49-0.98-0.49h-1.39c-0.7,0-0.91,0.21-0.91,0.91v47.69
		c0,0.7,0.21,0.91,0.91,0.91h1.39c0.63,0,0.84-0.21,0.84-0.91V174c0-4.39-0.42-8.85-0.42-11.5h0.14c1.46,2.02,3.35,5.79,5.65,9.06
		l24.75,35.28c0.28,0.49,0.49,0.56,0.98,0.56h1.46c0.63,0,0.84-0.21,0.84-0.91V158.8C555.48,158.1,555.27,157.89,554.65,157.89z"/>
	<path class="st1" d="M569.29,157.89h-1.46c-0.7,0-0.91,0.21-0.91,0.91v47.69c0,0.7,0.21,0.91,0.91,0.91h1.46
		c0.63,0,0.84-0.21,0.84-0.91V158.8C570.13,158.1,569.92,157.89,569.29,157.89z"/>
	<path class="st1" d="M611.12,157.89h-33.47c-0.7,0-0.91,0.21-0.91,0.91v1.25c0,0.63,0.21,0.84,0.91,0.84h15.13v45.6
		c0,0.7,0.21,0.91,0.91,0.91h1.46c0.63,0,0.84-0.21,0.84-0.91v-45.6h15.13c0.7,0,0.91-0.21,0.91-0.84v-1.25
		C612.03,158.1,611.82,157.89,611.12,157.89z"/>
	<path class="st1" d="M654.49,157.89h-1.74c-0.98,0-1.25,0.07-1.67,0.77l-16.52,25.03l-16.52-25.03c-0.35-0.7-0.63-0.77-1.6-0.77
		h-1.88c-0.63,0-0.77,0.42-0.49,0.91l18.82,28.17v19.52c0,0.7,0.21,0.91,0.91,0.91h1.46c0.63,0,0.84-0.21,0.84-0.91v-19.45
		l18.89-28.24C655.25,158.31,655.11,157.89,654.49,157.89z"/>
</g>
</svg>
