<?xml version="1.0" encoding="utf-8"?>
<!-- Generator: Adobe Illustrator 25.3.1, SVG Export Plug-In . SVG Version: 6.00 Build 0)  -->
<svg version="1.1" id="Layer_1" xmlns="http://www.w3.org/2000/svg" xmlns:xlink="http://www.w3.org/1999/xlink" x="0px" y="0px"
	 viewBox="0 0 780.07 320" style="enable-background:new 0 0 780.07 320;" xml:space="preserve">
<style type="text/css">
	.st0{fill:url(#SVGID_1_);}
	.st1{fill:#FFFFFF;}
</style>
<g>
	
		<linearGradient id="SVGID_1_" gradientUnits="userSpaceOnUse" x1="145.6056" y1="93.8185" x2="264.792" y2="213.0049" gradientTransform="matrix(1 0 0 -1 0 319.0709)">
		<stop  offset="0" style="stop-color:#00FA82"/>
		<stop  offset="1" style="stop-color:#21FFE5"/>
	</linearGradient>
	<path class="st0" d="M236.95,150.5l16.31-12.02l-28.02-15.94l-47.08-29.59l0,0L172,89.21l-48.76,28.78v95.61l81.82,48.94
		l19.06-11.38l-19.06-11.38l-62.77-36.42v-73.98l29.14-18.21l14.57,9.1l-29.14,18.21v55.78l25.78,14.8l53.8,31.87l2.24,1.14
		l2.24-1.14l45.95-27.32v-95.62l-81.81-47.81l-19.06,11.38l28.02,15.94l53.8,31.87v73.98l-29.14,17.07l-14.57-9.1l29.14-17.07V156.7
		h-48.2v19.35h29.14v6.82l-29.14,17.07l-29.14-17.07v-34.14l27.86-17.22l20.34,11.53L236.95,150.5z"/>
	<g>
		<path class="st1" d="M327.95,135.73c0-11.7,8.87-21.14,21.49-21.14c7.14,0,12.56,2.54,16.47,6.68l-5.82,5.76
			c-2.48-2.54-5.82-4.38-10.66-4.38c-7.83,0-13.08,5.94-13.08,13.08c0,7.38,5.24,13.08,13.71,13.08c3.4,0,6.57-0.63,8.58-2.19v-7.09
			h-8.82v-7.83h16.94v19.18c-3.69,3.98-10.2,5.99-16.65,5.99C337.4,156.87,327.95,147.71,327.95,135.73z"/>
		<path class="st1" d="M371.67,141.78c0-8.53,6.39-15.03,15.15-15.03c7.54,0,14.17,4.78,14.17,14.17c0,0.69,0.06,1.5-0.11,2.7
			h-21.54c0.46,3.86,3.86,5.99,7.66,5.99c3.63,0,6.1-1.62,7.43-3.63l5.87,4.38c-2.7,3.92-7.31,6.45-13.37,6.45
			C378.35,156.81,371.67,150.88,371.67,141.78z M393.1,138.27c-0.69-3.46-3.57-5.01-6.51-5.01c-2.94,0-6.22,1.5-6.97,5.01H393.1z"/>
		<path class="st1" d="M409.23,146.1v-11.81h-5.82v-6.91h5.82v-8.01h7.9v8.01h8.12v6.91h-8.12v10.26c0,3.51,1.44,4.9,4.9,4.9
			c1.21,0,2.3-0.18,3.22-0.52v6.97c-1.33,0.4-2.77,0.63-5.01,0.63C414.12,156.52,409.23,153.18,409.23,146.1z"/>
		<path class="st1" d="M327.9,187.73c0-11.7,9.45-21.14,21.14-21.14c8.3,0,15.38,4.38,18.9,10.89l-7.26,4.03
			c-2.48-4.21-6.34-6.86-11.63-6.86c-7.14,0-12.73,5.94-12.73,13.08c0,7.14,5.59,13.08,12.73,13.08c5.3,0,9.16-2.65,11.63-6.86
			l7.26,4.03c-3.51,6.62-10.54,10.89-18.9,10.89C337.35,208.87,327.9,199.43,327.9,187.73z"/>
		<path class="st1" d="M371.04,193.78c0-8.41,6.8-15.03,15.15-15.03c8.35,0,15.15,6.62,15.15,15.03c0,8.46-6.8,15.03-15.15,15.03
			C377.83,208.81,371.04,202.24,371.04,193.78z M393.33,193.78c0-4.43-3.06-7.66-7.14-7.66c-4.14,0-7.2,3.22-7.2,7.66
			c0,4.43,3.06,7.66,7.2,7.66C390.28,201.44,393.33,198.21,393.33,193.78z"/>
		<path class="st1" d="M443.33,192.8c0-4.32-1.33-6.86-4.5-6.86c-3.4,0-5.58,2.48-5.76,7.78v14.46h-7.89v-15.38
			c0-4.32-1.33-6.86-4.5-6.86c-3.46,0-5.76,2.65-5.76,8.18v14.06h-7.9v-28.8h7.9v3.28c1.55-2.25,4.14-3.92,7.66-3.92
			c4.14,0,7.14,2.02,8.93,5.3c1.78-3.46,5.7-5.3,8.93-5.3c6.91,0,10.78,4.9,10.78,12.73v16.7h-7.9V192.8z"/>
		<path class="st1" d="M494.77,192.8c0-4.32-1.33-6.86-4.5-6.86c-3.4,0-5.58,2.48-5.76,7.78v14.46h-7.89v-15.38
			c0-4.32-1.33-6.86-4.5-6.86c-3.46,0-5.76,2.65-5.76,8.18v14.06h-7.9v-28.8h7.9v3.28c1.55-2.25,4.14-3.92,7.66-3.92
			c4.14,0,7.14,2.02,8.93,5.3c1.78-3.46,5.7-5.3,8.93-5.3c6.91,0,10.78,4.9,10.78,12.73v16.7h-7.9L494.77,192.8L494.77,192.8z"/>
		<path class="st1" d="M509.57,196.08v-16.7h7.9v15.38c0,4.38,1.44,6.86,4.9,6.86c3.51,0,5.94-2.59,5.94-8.18v-14.06h7.89v28.8
			h-7.89v-3.28c-1.55,2.3-4.21,3.92-7.9,3.92C513.48,208.81,509.57,203.69,509.57,196.08z"/>
		<path class="st1" d="M543.78,179.38h7.9v3.28c1.55-2.3,4.5-3.92,8.24-3.92c6.97,0,11.12,5.07,11.12,12.56v16.88h-7.9v-15.55
			c0-4.14-1.78-6.68-5.07-6.68c-3.69,0-6.39,2.65-6.39,8.18v14.06h-7.9V179.38z"/>
		<path class="st1" d="M577.18,169.64c0-2.77,2.3-5.01,5.01-5.01c2.82,0,5.07,2.25,5.07,5.01c0,2.77-2.25,5.01-5.07,5.01
			C579.49,174.65,577.18,172.41,577.18,169.64z M578.28,179.38h7.9v28.8h-7.9V179.38z"/>
		<path class="st1" d="M596.71,198.1v-11.81h-5.82v-6.91h5.82v-8.01h7.9v8.01h8.12v6.91h-8.12v10.26c0,3.51,1.44,4.9,4.9,4.9
			c1.21,0,2.3-0.18,3.22-0.52v6.97c-1.33,0.4-2.77,0.63-5.01,0.63C601.61,208.52,596.71,205.18,596.71,198.1z"/>
		<path class="st1" d="M620.74,220.22l6.05-13.66l-12.1-27.19h8.64l7.72,18.66l7.66-18.66h8.7l-18.09,40.84L620.74,220.22
			L620.74,220.22z"/>
	</g>
</g>
</svg>
