<svg id="Layer_1" data-name="Layer 1" xmlns="http://www.w3.org/2000/svg" xmlns:xlink="http://www.w3.org/1999/xlink" viewBox="0 0 780.07 320"><defs><style>.cls-1{fill:url(#New_Gradient_Swatch_copy);}.cls-2{fill:#1a0645;}</style><linearGradient id="New_Gradient_Swatch_copy" x1="85.68" y1="239.98" x2="234.66" y2="90.99" gradientUnits="userSpaceOnUse"><stop offset="0" stop-color="#00fa82"/><stop offset="1" stop-color="#21ffe5"/></linearGradient></defs><path class="cls-1" d="M199.86,146.53l20.39-15-35-19.92-58.85-37h0l-7.7-4.68-60.95,36V225.41L160,286.59l23.82-14.22L160,258.14,81.54,212.61V120.13L118,97.36l18.21,11.38L99.75,131.51v69.72L132,219.72l67.25,39.84L202,261l2.8-1.42,57.45-34.15V105.9L160,46.14,136.18,60.37l35,19.92,67.25,39.84v92.48L202,234l-18.21-11.38,36.43-21.34v-47H160v24.19h36.43V187L160,208.34,123.57,187V144.31l34.83-21.52,25.42,14.41Z"/><path class="cls-2" d="M313.61,128.07c0-14.62,11.09-26.43,26.86-26.43,8.93,0,15.7,3.17,20.59,8.36l-7.27,7.2a17.7,17.7,0,0,0-13.32-5.48c-9.79,0-16.34,7.42-16.34,16.35,0,9.22,6.55,16.34,17.13,16.34,4.25,0,8.21-.79,10.73-2.73v-8.86H341V123h21.17v24c-4.61,5-12.75,7.49-20.81,7.49C325.42,154.5,313.61,143.05,313.61,128.07Z"/><path class="cls-2" d="M368.26,135.63c0-10.66,8-18.79,18.94-18.79,9.43,0,17.71,6,17.71,17.71a20.45,20.45,0,0,1-.14,3.38H377.84c.57,4.83,4.82,7.49,9.57,7.49,4.54,0,7.64-2,9.29-4.53l7.35,5.47c-3.39,4.9-9.15,8.06-16.71,8.06C376.61,154.42,368.26,147,368.26,135.63Zm26.79-4.39c-.87-4.32-4.47-6.27-8.14-6.27s-7.78,1.88-8.71,6.27Z"/><path class="cls-2" d="M415.2,141V126.27h-7.27v-8.64h7.27v-10h9.87v10h10.15v8.64H425.07v12.82c0,4.39,1.8,6.12,6.12,6.12a11.59,11.59,0,0,0,4-.65v8.71a20.16,20.16,0,0,1-6.26.79C421.32,154.06,415.2,149.89,415.2,141Z"/><path class="cls-2" d="M313.54,193.07a26.75,26.75,0,0,1,50-12.82l-9.08,5c-3.09-5.25-7.92-8.57-14.54-8.57a16.36,16.36,0,0,0,0,32.7c6.62,0,11.45-3.32,14.54-8.57l9.08,5c-4.4,8.28-13.18,13.61-23.62,13.61A26.4,26.4,0,0,1,313.54,193.07Z"/><path class="cls-2" d="M367.47,200.63a18.94,18.94,0,1,1,18.93,18.79A18.79,18.79,0,0,1,367.47,200.63Zm27.86,0c0-5.54-3.81-9.58-8.93-9.58s-9,4-9,9.58,3.82,9.58,9,9.58S395.33,206.17,395.33,200.63Z"/><path class="cls-2" d="M457.83,199.41c0-5.4-1.65-8.57-5.61-8.57-4.25,0-7,3.09-7.21,9.72v18.07h-9.86V199.41c0-5.4-1.66-8.57-5.62-8.57-4.32,0-7.2,3.31-7.2,10.22v17.57h-9.86v-36h9.86v4.1a11.32,11.32,0,0,1,9.58-4.89,12.09,12.09,0,0,1,11.16,6.62,13,13,0,0,1,11.16-6.62c8.64,0,13.47,6.12,13.47,15.91v20.88h-9.87Z"/><path class="cls-2" d="M522.13,199.41c0-5.4-1.66-8.57-5.62-8.57-4.25,0-7,3.09-7.2,9.72v18.07h-9.86V199.41c0-5.4-1.66-8.57-5.62-8.57-4.32,0-7.2,3.31-7.2,10.22v17.57h-9.87v-36h9.87v4.1a11.29,11.29,0,0,1,9.58-4.89,12.1,12.1,0,0,1,11.16,6.62,13,13,0,0,1,11.16-6.62c8.64,0,13.46,6.12,13.46,15.91v20.88h-9.86Z"/><path class="cls-2" d="M540.63,203.51V182.63h9.86v19.22c0,5.48,1.8,8.57,6.12,8.57S564,207.18,564,200.2V182.63h9.86v36H564v-4.1a11.4,11.4,0,0,1-9.87,4.89C545.52,219.42,540.63,213,540.63,203.51Z"/><path class="cls-2" d="M583.39,182.63h9.87v4.1c1.94-2.88,5.62-4.89,10.3-4.89,8.71,0,13.89,6.33,13.89,15.69v21.1h-9.86V199.19c0-5.18-2.23-8.35-6.34-8.35-4.61,0-8,3.31-8,10.22v17.57h-9.87Z"/><path class="cls-2" d="M625.15,170.46a6.31,6.31,0,1,1,6.27,6.26A6.31,6.31,0,0,1,625.15,170.46Zm1.37,12.17h9.87v36h-9.87Z"/><path class="cls-2" d="M649.56,206V191.27h-7.27v-8.64h7.27v-10h9.87v10h10.15v8.64H659.43v12.82c0,4.39,1.8,6.12,6.12,6.12a11.59,11.59,0,0,0,4-.65v8.71a20.28,20.28,0,0,1-6.27.79C655.68,219.06,649.56,214.89,649.56,206Z"/><path class="cls-2" d="M679.59,233.68l7.56-17.06-15.13-34h10.81L692.47,206l9.58-23.33h10.87l-22.61,51.05Z"/></svg>