<?xml version="1.0" encoding="utf-8"?>
<!-- Generator: Adobe Illustrator 25.3.1, SVG Export Plug-In . SVG Version: 6.00 Build 0)  -->
<svg version="1.1" id="Layer_1" xmlns="http://www.w3.org/2000/svg" xmlns:xlink="http://www.w3.org/1999/xlink" x="0px" y="0px"
	 viewBox="0 0 365.8 106.4" style="enable-background:new 0 0 365.8 106.4;" xml:space="preserve">
<style type="text/css">
	.st0{opacity:0.5;}
	.st1{fill:#FFFFFF;}
</style>
<g class="st0">
	<path class="st1" d="M66.6,46.2l7.5-5.5l-12.9-7.3L39.6,19.7l0,0l-2.8-1.7L14.3,31.2v44l37.7,22.5l8.8-5.2l-8.8-5.2L23,70.5V36.4
		l13.4-8.4l6.7,4.2l-13.4,8.4v25.7l11.9,6.8l24.8,14.7l1,0.5l1-0.5l21.2-12.6v-44l-37.7-22l-8.8,5.2l12.9,7.3l24.8,14.7v34.1
		l-13.4,7.9l-6.7-4.2l13.4-7.9V49H51.9v8.9h13.4v3.1l-13.4,7.9l-13.4-7.9V45.4l12.8-7.9l9.4,5.3L66.6,46.2z"/>
	<path class="st1" d="M108.5,39.4c0-5.4,4.1-9.7,9.9-9.7c3.3,0,5.8,1.2,7.6,3.1l-2.7,2.7c-1.3-1.3-3.1-2.1-4.9-2c-3.6,0-6,2.7-6,6
		c0,3.4,2.4,6,6.3,6c1.6,0,3-0.3,4-1v-3.3h-4v-3.6h7.8v8.8c-1.7,1.8-4.7,2.8-7.7,2.8C112.9,49.1,108.5,44.9,108.5,39.4z"/>
	<path class="st1" d="M128.7,42.2c0-3.9,2.9-6.9,7-6.9c3.5,0,6.5,2.2,6.5,6.5c0,0.4,0,0.8-0.1,1.2h-9.9c0.2,1.8,1.8,2.8,3.5,2.8
		c1.7,0,2.8-0.7,3.4-1.7l2.7,2c-1.2,1.8-3.4,3-6.2,3C131.7,49.1,128.7,46.3,128.7,42.2z M138.5,40.5c-0.3-1.6-1.6-2.3-3-2.3
		s-2.9,0.7-3.2,2.3H138.5z"/>
	<path class="st1" d="M146,44.1v-5.4h-2.7v-3.2h2.7v-3.7h3.6v3.7h3.7v3.2h-3.7v4.7c0,1.6,0.7,2.3,2.3,2.3c0.5,0,1-0.1,1.5-0.2v3.2
		c-0.7,0.2-1.5,0.3-2.3,0.3C148.2,48.9,146,47.4,146,44.1z"/>
	<path class="st1" d="M108.5,63.3c0.1-5.4,4.6-9.8,10-9.7c3.5,0.1,6.7,1.9,8.4,5l-3.3,1.8c-1.1-1.9-2.9-3.2-5.4-3.2
		c-3.3,0.1-5.9,2.9-5.8,6.2c0.1,3.2,2.6,5.7,5.8,5.8c2.4,0,4.2-1.2,5.4-3.2l3.3,1.8c-1.6,3.1-4.9,5-8.7,5
		C112.9,73,108.5,68.7,108.5,63.3z"/>
	<path class="st1" d="M128.4,66.1c0-3.9,3.1-7,6.9-7c3.9,0,7,3.1,7,6.9c0,3.9-3.1,7-6.9,7c0,0,0,0-0.1,0
		C131.5,73.1,128.4,70,128.4,66.1C128.4,66.1,128.4,66.1,128.4,66.1z M138.6,66.1c0-2-1.4-3.5-3.3-3.5S132,64,132,66.1
		s1.4,3.5,3.3,3.5C137.3,69.6,138.6,68.1,138.6,66.1L138.6,66.1z"/>
	<path class="st1" d="M161.7,65.7c0-2-0.6-3.2-2.1-3.2c-1.6,0-2.6,1.1-2.7,3.6v6.7h-3.6v-7.1c0-2-0.6-3.2-2.1-3.2
		c-1.6,0-2.7,1.2-2.7,3.8v6.5H145V59.5h3.6V61c0.8-1.2,2.1-1.8,3.5-1.8c1.7-0.1,3.3,0.9,4.1,2.4c0.8-1.5,2.4-2.4,4.1-2.4
		c3.2,0,5,2.3,5,5.9v7.7h-3.6L161.7,65.7z"/>
	<path class="st1" d="M185.4,65.7c0-2-0.6-3.2-2.1-3.2c-1.6,0-2.6,1.1-2.7,3.6v6.7H177v-7.1c0-2-0.6-3.2-2.1-3.2
		c-1.6,0-2.7,1.2-2.7,3.8v6.5h-3.6V59.5h3.6V61c0.8-1.2,2.1-1.8,3.5-1.8c1.7-0.1,3.3,0.9,4.1,2.4c0.8-1.5,2.4-2.4,4.1-2.4
		c3.2,0,5,2.3,5,5.9v7.7h-3.6V65.7z"/>
	<path class="st1" d="M192.2,67.2v-7.7h3.6v7.1c0,2,0.7,3.2,2.3,3.2s2.7-1.2,2.7-3.8v-6.5h3.6v13.3h-3.6v-1.5
		c-0.8,1.2-2.2,1.9-3.6,1.8C194,73,192.2,70.7,192.2,67.2z"/>
	<path class="st1" d="M207.9,59.5h3.6V61c0.7-1.1,2.1-1.8,3.8-1.8c3.2,0,5.1,2.3,5.1,5.8v7.8h-3.6v-7.2c0-1.9-0.8-3.1-2.3-3.1
		c-1.7,0-2.9,1.2-2.9,3.8v6.5h-3.6L207.9,59.5z"/>
	<path class="st1" d="M223.3,55c0-1.3,1-2.3,2.3-2.3c1.3,0,2.3,1,2.3,2.3c0,1.3-1,2.3-2.3,2.3c0,0,0,0,0,0
		C224.4,57.3,223.3,56.3,223.3,55z M223.8,59.5h3.6v13.3h-3.6V59.5z"/>
	<path class="st1" d="M232.3,68.1v-5.4h-2.7v-3.2h2.7v-3.7h3.6v3.7h3.7v3.2h-3.7v4.7c0,1.6,0.7,2.3,2.3,2.3c0.5,0,1-0.1,1.5-0.2v3.2
		c-0.8,0.2-1.5,0.3-2.3,0.3C234.6,72.9,232.3,71.4,232.3,68.1z"/>
	<path class="st1" d="M243.4,78.3l2.8-6.3l-5.6-12.5h4l3.6,8.6l3.5-8.6h4l-8.3,18.8L243.4,78.3z"/>
</g>
</svg>
