<?xml version="1.0" encoding="utf-8"?>
<!-- Generator: Adobe Illustrator 25.3.1, SVG Export Plug-In . SVG Version: 6.00 Build 0)  -->
<svg version="1.1" id="Layer_1" xmlns="http://www.w3.org/2000/svg" xmlns:xlink="http://www.w3.org/1999/xlink" x="0px" y="0px"
	 viewBox="0 0 737.79 273.43" style="enable-background:new 0 0 737.79 273.43;" xml:space="preserve">
<style type="text/css">
	.st0{fill:#44B490;}
	.st1{fill:#FFFFFF;}
</style>
<g>
	<g>
		<path class="st0" d="M295.87,112.9h12.87l-0.87,2.69c-0.54,1.69-1.77,3.3-3.68,4.82c-1.91,1.49-4.26,2.23-7.05,2.23
			c-1.57,0-3.22-0.26-4.96-0.78c-1.74-0.52-3.35-1.52-4.85-3c-1.46-1.48-2.67-3.63-3.63-6.42c-0.92-2.83-1.38-6.54-1.38-11.14
			c0-5.39,0.65-9.64,1.94-12.74c1.33-3.14,3.05-5.37,5.16-6.68c2.15-1.35,4.43-2.02,6.85-2.02c3.47,0,6.18,1.04,8.12,3.11
			c1.98,2.04,3.29,4.59,3.93,7.67h20.79c-0.07-3.49-0.85-6.87-2.35-10.15c-1.5-3.28-3.66-6.22-6.49-8.81
			c-2.79-2.62-6.16-4.7-10.12-6.22c-3.95-1.52-8.41-2.28-13.39-2.28c-7.08,0-13.35,1.61-18.8,4.82c-5.42,3.21-9.67,7.74-12.77,13.57
			c-3.07,5.8-4.6,12.59-4.6,20.36c0,7.53,1.45,14.18,4.34,19.94c2.9,5.73,6.97,10.22,12.21,13.47c5.24,3.21,11.38,4.82,18.39,4.82
			c4.09,0,7.46-0.5,10.12-1.5c2.66-1.04,4.84-2.28,6.54-3.73c1.74-1.45,3.22-2.81,4.44-4.09v8.29h13.03V99.54l-33.82-0.21V112.9z"/>
		<polygon class="st0" points="352.88,112.44 373.39,112.44 373.39,99.54 353.03,99.54 353.03,81.93 373.39,81.93 373.39,80.89 
			373.39,80.89 373.39,64.21 373.39,64.21 347.08,64.21 347,64.21 347,64.14 332.96,64.14 332.96,139.17 347,139.17 347,139.12 
			387.67,139.12 387.67,122.33 352.88,122.33 		"/>
		<polygon class="st0" points="387.72,64.21 387.57,64.21 376.81,64.21 376.81,80.89 376.81,81.93 387.72,81.93 397.86,81.93 
			397.86,139.12 417.78,139.12 417.78,81.93 438.94,81.93 438.94,64.21 		"/>
	</g>
	<g>
		<path class="st0" d="M162.49,58.43c-44.08,0-79.82,35.74-79.82,79.82c0,21.2,8.27,40.47,21.75,54.76c0.28-9.32,6.5-17.15,15-19.84
			c-3.61-2.19-6.03-6.15-6.03-10.69c0-6.91,5.6-12.51,12.51-12.51c6.91,0,12.51,5.6,12.51,12.51c0,4.53-2.42,8.49-6.03,10.69
			c4.26,1.35,7.95,3.99,10.6,7.47c-5.01,4.58-8.15,11.17-8.15,18.49v9.04c0,1.65,0.16,3.27,0.47,4.83
			c-0.12,0.06,3.35,1.47,5.26,2.01c-1.37-2.83-2.14-6.01-2.14-9.37v-7.75c0-9.39,6.02-17.36,14.41-20.29
			c-3.55-2.84-5.83-7.2-5.83-12.1c0-8.56,6.94-15.49,15.49-15.49c8.56,0,15.49,6.94,15.49,15.49c0,4.9-2.28,9.27-5.83,12.1
			c8.39,2.93,14.41,10.9,14.41,20.29v7.75c0,3.36-0.77,6.53-2.14,9.37c1.91-0.54,5.38-1.95,5.26-2.01c0.31-1.56,0.47-3.18,0.47-4.83
			v-9.04c0-7.33-3.15-13.91-8.15-18.49c2.65-3.47,6.34-6.12,10.6-7.47c-3.61-2.19-6.03-6.15-6.03-10.69
			c0-6.91,5.6-12.51,12.51-12.51c6.91,0,12.51,5.6,12.51,12.51c0,4.53-2.42,8.49-6.03,10.69c8.5,2.69,14.72,10.51,15,19.84
			c13.48-14.29,21.75-33.56,21.75-54.76C242.31,94.16,206.57,58.43,162.49,58.43z M214.65,176.51c7.17-10.29,11.38-22.8,11.38-36.29
			c0-35.09-28.45-63.54-63.54-63.54c-35.09,0-63.54,28.45-63.54,63.54c0,13.49,4.21,26,11.38,36.29c-2.46,1.58-4.57,3.64-6.21,6.06
			c-8.64-11.89-13.74-26.52-13.74-42.35c0-39.83,32.29-72.12,72.12-72.12s72.12,32.29,72.12,72.12c0,15.82-5.1,30.46-13.74,42.35
			C219.23,180.15,217.11,178.09,214.65,176.51z"/>
		<g>
			<path class="st1" d="M198.85,146.55c3.09,0,5.98,0.89,8.42,2.42l3.1-3.16c1.74-1.74,2.87-3.97,2.87-6.58
				c0-2.61-1.12-4.84-2.92-6.63c-1.19-1.19-2.79-1.85-4.46-1.85h-38.79v-9.73l-15.96,16.25l9.53,9.7c0.55-0.05,1.1-0.08,1.67-0.08
				c1.65,0,3.24,0.21,4.77,0.61v-3.78h27.3l-14.65,14.91c0.88,2.18,1.37,4.55,1.37,7.05c0,10.38-8.41,18.79-18.79,18.79
				c-3.52,0-6.82-0.97-9.63-2.66l6.65,6.77c2.49,2.53,6.53,2.53,9.02,0l17.23-17.55c-1.63-2.49-2.58-5.46-2.58-8.66
				C183,153.64,190.1,146.55,198.85,146.55z"/>
			<path class="st1" d="M145.88,156.56l-18.97-19.31l36.92-37.59l19.49,19.84c2.52,2.56,6.64,2.56,9.16,0
				c2.46-2.51,2.46-6.53,0-9.04l-24.13-24.57c-2.49-2.54-6.53-2.54-9.02,0l-45.94,46.77c-2.49,2.54-2.49,6.65,0,9.18l6.28,6.39
				c1.83-0.74,3.82-1.15,5.92-1.15c8.76,0,15.85,7.1,15.85,15.85c0,2.19-0.45,4.28-1.25,6.18l5.82,5.93
				c-1.58-2.75-2.49-5.94-2.49-9.35C143.51,162.38,144.38,159.27,145.88,156.56z"/>
		</g>
	</g>
	<g>
		<path class="st0" d="M287.83,156.92c10.81,0,15.97,4.18,18.34,12.13c0.21,0.7,0,0.91-0.63,1.19l-1.25,0.42
			c-0.7,0.14-0.98,0.07-1.18-0.56c-2.09-6.9-6.21-10.18-15.27-10.18c-10.32,0-15.55,5.3-15.55,14.08v17.22
			c0,8.71,5.44,14.15,15.55,14.15c9.34,0,13.32-3.63,15.41-10.53c0.28-0.63,0.56-0.77,1.19-0.56l1.32,0.49
			c0.63,0.21,0.77,0.49,0.56,1.12c-2.37,7.95-7.39,12.48-18.48,12.48c-12.13,0-18.75-6.55-18.75-17.22v-17.08
			C269.08,163.47,275.49,156.92,287.83,156.92z"/>
		<path class="st0" d="M332.1,156.92c12.13,0,18.68,6.55,18.68,17.22v17.01c0,10.67-6.55,17.22-18.68,17.22
			c-12.27,0-18.82-6.55-18.82-17.22v-17.01C313.28,163.47,319.83,156.92,332.1,156.92z M332.1,159.91
			c-10.18,0-15.62,5.3-15.62,14.22v17.01c0,8.92,5.44,14.22,15.62,14.22c10.04,0,15.48-5.3,15.48-14.22v-17.01
			C347.58,165.21,342.14,159.91,332.1,159.91z"/>
		<path class="st0" d="M404.75,158.8v47.69c0,0.7-0.21,0.91-0.84,0.91h-1.39c-0.63,0-0.84-0.21-0.84-0.91v-32
			c0-3.63,0.14-7.53,0.49-11.64h-0.14c-1.74,3.63-3.35,6.69-5.23,9.97l-12.41,22.03c-0.28,0.56-0.56,0.7-1.12,0.7h-0.91
			c-0.63,0-0.91-0.07-1.18-0.7l-12.62-22.31c-1.81-3.14-3.35-6.14-5.02-9.69h-0.14c0.28,4.11,0.42,7.88,0.42,11.64v32
			c0,0.7-0.21,0.91-0.91,0.91h-1.25c-0.7,0-0.91-0.21-0.91-0.91V158.8c0-0.7,0.21-0.91,0.91-0.91h1.12c0.77,0,0.98,0.21,1.32,0.77
			l18.68,32.98l18.55-32.91c0.35-0.63,0.56-0.84,1.25-0.84h1.32C404.54,157.89,404.75,158.1,404.75,158.8z"/>
		<path class="st0" d="M460.18,158.8v47.69c0,0.7-0.21,0.91-0.84,0.91h-1.39c-0.63,0-0.84-0.21-0.84-0.91v-32
			c0-3.63,0.14-7.53,0.49-11.64h-0.14c-1.74,3.63-3.35,6.69-5.23,9.97l-12.41,22.03c-0.28,0.56-0.56,0.7-1.12,0.7h-0.91
			c-0.63,0-0.91-0.07-1.18-0.7l-12.62-22.31c-1.81-3.14-3.35-6.14-5.02-9.69h-0.14c0.28,4.11,0.42,7.88,0.42,11.64v32
			c0,0.7-0.21,0.91-0.91,0.91h-1.25c-0.7,0-0.91-0.21-0.91-0.91V158.8c0-0.7,0.21-0.91,0.91-0.91h1.12c0.77,0,0.98,0.21,1.32,0.77
			l18.68,32.98l18.55-32.91c0.35-0.63,0.56-0.84,1.25-0.84h1.32C459.97,157.89,460.18,158.1,460.18,158.8z"/>
		<path class="st0" d="M489.6,205.44c10.18,0,15.13-5.79,15.13-14.78V158.8c0-0.7,0.21-0.91,0.84-0.91h1.53
			c0.63,0,0.84,0.21,0.84,0.91v31.86c0,10.81-6.07,17.78-18.34,17.78c-12.34,0-18.41-6.97-18.41-17.78V158.8
			c0-0.7,0.21-0.91,0.91-0.91h1.46c0.63,0,0.84,0.21,0.84,0.91v31.86C474.4,199.65,479.35,205.44,489.6,205.44z"/>
		<path class="st0" d="M555.48,158.8v47.69c0,0.7-0.21,0.91-0.84,0.91h-1.46c-0.49,0-0.7-0.07-0.98-0.56l-24.75-35.28
			c-2.3-3.28-4.18-7.04-5.65-9.06h-0.14c0,2.65,0.42,7.11,0.42,11.5v32.49c0,0.7-0.21,0.91-0.84,0.91h-1.39
			c-0.7,0-0.91-0.21-0.91-0.91V158.8c0-0.7,0.21-0.91,0.91-0.91h1.39c0.56,0,0.84,0.28,0.98,0.49l24.05,34.37
			c2.58,3.7,4.74,7.6,6.41,9.97h0.14c0-3.07-0.49-7.74-0.49-12.55v-31.44c0-0.63,0.21-0.84,0.91-0.84h1.39
			C555.27,157.89,555.48,158.1,555.48,158.8z"/>
		<path class="st0" d="M567.82,157.89h1.46c0.63,0,0.84,0.21,0.84,0.91v47.69c0,0.7-0.21,0.91-0.84,0.91h-1.46
			c-0.7,0-0.91-0.21-0.91-0.91V158.8C566.92,158.1,567.13,157.89,567.82,157.89z"/>
		<path class="st0" d="M612.03,158.8v1.25c0,0.63-0.21,0.84-0.91,0.84h-15.13v45.6c0,0.7-0.21,0.91-0.84,0.91h-1.46
			c-0.7,0-0.91-0.21-0.91-0.91v-45.6h-15.13c-0.7,0-0.91-0.21-0.91-0.84v-1.25c0-0.7,0.21-0.91,0.91-0.91h33.47
			C611.82,157.89,612.03,158.1,612.03,158.8z"/>
		<path class="st0" d="M654.97,158.8l-18.89,28.24v19.45c0,0.7-0.21,0.91-0.84,0.91h-1.46c-0.7,0-0.91-0.21-0.91-0.91v-19.52
			l-18.82-28.17c-0.28-0.49-0.14-0.91,0.49-0.91h1.88c0.98,0,1.25,0.07,1.6,0.77l16.52,25.03l16.52-25.03
			c0.42-0.7,0.7-0.77,1.67-0.77h1.74C655.11,157.89,655.25,158.31,654.97,158.8z"/>
	</g>
</g>
</svg>
